%TF.GenerationSoftware,KiCad,Pcbnew,8.0.6*%
%TF.CreationDate,2024-12-27T21:12:54-05:00*%
%TF.ProjectId,Glider,476c6964-6572-42e6-9b69-6361645f7063,rev?*%
%TF.SameCoordinates,Original*%
%TF.FileFunction,Legend,Bot*%
%TF.FilePolarity,Positive*%
%FSLAX46Y46*%
G04 Gerber Fmt 4.6, Leading zero omitted, Abs format (unit mm)*
G04 Created by KiCad (PCBNEW 8.0.6) date 2024-12-27 21:12:54*
%MOMM*%
%LPD*%
G01*
G04 APERTURE LIST*
%ADD10C,0.150000*%
G04 APERTURE END LIST*
D10*
X131176190Y-80294875D02*
X131176190Y-81104398D01*
X131176190Y-81104398D02*
X131128571Y-81199636D01*
X131128571Y-81199636D02*
X131080952Y-81247256D01*
X131080952Y-81247256D02*
X130985714Y-81294875D01*
X130985714Y-81294875D02*
X130795238Y-81294875D01*
X130795238Y-81294875D02*
X130700000Y-81247256D01*
X130700000Y-81247256D02*
X130652381Y-81199636D01*
X130652381Y-81199636D02*
X130604762Y-81104398D01*
X130604762Y-81104398D02*
X130604762Y-80294875D01*
X130128571Y-81294875D02*
X130128571Y-80294875D01*
X130128571Y-80294875D02*
X129795238Y-81009160D01*
X129795238Y-81009160D02*
X129461905Y-80294875D01*
X129461905Y-80294875D02*
X129461905Y-81294875D01*
X129033333Y-81009160D02*
X128557143Y-81009160D01*
X129128571Y-81294875D02*
X128795238Y-80294875D01*
X128795238Y-80294875D02*
X128461905Y-81294875D01*
X128176190Y-81247256D02*
X128033333Y-81294875D01*
X128033333Y-81294875D02*
X127795238Y-81294875D01*
X127795238Y-81294875D02*
X127700000Y-81247256D01*
X127700000Y-81247256D02*
X127652381Y-81199636D01*
X127652381Y-81199636D02*
X127604762Y-81104398D01*
X127604762Y-81104398D02*
X127604762Y-81009160D01*
X127604762Y-81009160D02*
X127652381Y-80913922D01*
X127652381Y-80913922D02*
X127700000Y-80866303D01*
X127700000Y-80866303D02*
X127795238Y-80818684D01*
X127795238Y-80818684D02*
X127985714Y-80771065D01*
X127985714Y-80771065D02*
X128080952Y-80723446D01*
X128080952Y-80723446D02*
X128128571Y-80675827D01*
X128128571Y-80675827D02*
X128176190Y-80580589D01*
X128176190Y-80580589D02*
X128176190Y-80485351D01*
X128176190Y-80485351D02*
X128128571Y-80390113D01*
X128128571Y-80390113D02*
X128080952Y-80342494D01*
X128080952Y-80342494D02*
X127985714Y-80294875D01*
X127985714Y-80294875D02*
X127747619Y-80294875D01*
X127747619Y-80294875D02*
X127604762Y-80342494D01*
X127223809Y-81247256D02*
X127080952Y-81294875D01*
X127080952Y-81294875D02*
X126842857Y-81294875D01*
X126842857Y-81294875D02*
X126747619Y-81247256D01*
X126747619Y-81247256D02*
X126700000Y-81199636D01*
X126700000Y-81199636D02*
X126652381Y-81104398D01*
X126652381Y-81104398D02*
X126652381Y-81009160D01*
X126652381Y-81009160D02*
X126700000Y-80913922D01*
X126700000Y-80913922D02*
X126747619Y-80866303D01*
X126747619Y-80866303D02*
X126842857Y-80818684D01*
X126842857Y-80818684D02*
X127033333Y-80771065D01*
X127033333Y-80771065D02*
X127128571Y-80723446D01*
X127128571Y-80723446D02*
X127176190Y-80675827D01*
X127176190Y-80675827D02*
X127223809Y-80580589D01*
X127223809Y-80580589D02*
X127223809Y-80485351D01*
X127223809Y-80485351D02*
X127176190Y-80390113D01*
X127176190Y-80390113D02*
X127128571Y-80342494D01*
X127128571Y-80342494D02*
X127033333Y-80294875D01*
X127033333Y-80294875D02*
X126795238Y-80294875D01*
X126795238Y-80294875D02*
X126652381Y-80342494D01*
X125509523Y-81009160D02*
X125033333Y-81009160D01*
X125604761Y-81294875D02*
X125271428Y-80294875D01*
X125271428Y-80294875D02*
X124938095Y-81294875D01*
X124604761Y-80771065D02*
X124271428Y-80771065D01*
X124128571Y-81294875D02*
X124604761Y-81294875D01*
X124604761Y-81294875D02*
X124604761Y-80294875D01*
X124604761Y-80294875D02*
X124128571Y-80294875D01*
X123128571Y-81294875D02*
X123461904Y-80818684D01*
X123699999Y-81294875D02*
X123699999Y-80294875D01*
X123699999Y-80294875D02*
X123319047Y-80294875D01*
X123319047Y-80294875D02*
X123223809Y-80342494D01*
X123223809Y-80342494D02*
X123176190Y-80390113D01*
X123176190Y-80390113D02*
X123128571Y-80485351D01*
X123128571Y-80485351D02*
X123128571Y-80628208D01*
X123128571Y-80628208D02*
X123176190Y-80723446D01*
X123176190Y-80723446D02*
X123223809Y-80771065D01*
X123223809Y-80771065D02*
X123319047Y-80818684D01*
X123319047Y-80818684D02*
X123699999Y-80818684D01*
X122509523Y-80294875D02*
X122319047Y-80294875D01*
X122319047Y-80294875D02*
X122223809Y-80342494D01*
X122223809Y-80342494D02*
X122128571Y-80437732D01*
X122128571Y-80437732D02*
X122080952Y-80628208D01*
X122080952Y-80628208D02*
X122080952Y-80961541D01*
X122080952Y-80961541D02*
X122128571Y-81152017D01*
X122128571Y-81152017D02*
X122223809Y-81247256D01*
X122223809Y-81247256D02*
X122319047Y-81294875D01*
X122319047Y-81294875D02*
X122509523Y-81294875D01*
X122509523Y-81294875D02*
X122604761Y-81247256D01*
X122604761Y-81247256D02*
X122699999Y-81152017D01*
X122699999Y-81152017D02*
X122747618Y-80961541D01*
X122747618Y-80961541D02*
X122747618Y-80628208D01*
X122747618Y-80628208D02*
X122699999Y-80437732D01*
X122699999Y-80437732D02*
X122604761Y-80342494D01*
X122604761Y-80342494D02*
X122509523Y-80294875D01*
X121652380Y-81294875D02*
X121652380Y-80294875D01*
X121652380Y-80294875D02*
X121080952Y-81294875D01*
X121080952Y-81294875D02*
X121080952Y-80294875D01*
X120652380Y-81009160D02*
X120176190Y-81009160D01*
X120747618Y-81294875D02*
X120414285Y-80294875D01*
X120414285Y-80294875D02*
X120080952Y-81294875D01*
X119747618Y-80294875D02*
X119747618Y-81104398D01*
X119747618Y-81104398D02*
X119699999Y-81199636D01*
X119699999Y-81199636D02*
X119652380Y-81247256D01*
X119652380Y-81247256D02*
X119557142Y-81294875D01*
X119557142Y-81294875D02*
X119366666Y-81294875D01*
X119366666Y-81294875D02*
X119271428Y-81247256D01*
X119271428Y-81247256D02*
X119223809Y-81199636D01*
X119223809Y-81199636D02*
X119176190Y-81104398D01*
X119176190Y-81104398D02*
X119176190Y-80294875D01*
X118842856Y-80294875D02*
X118271428Y-80294875D01*
X118557142Y-81294875D02*
X118557142Y-80294875D01*
X117938094Y-81294875D02*
X117938094Y-80294875D01*
X116890476Y-81199636D02*
X116938095Y-81247256D01*
X116938095Y-81247256D02*
X117080952Y-81294875D01*
X117080952Y-81294875D02*
X117176190Y-81294875D01*
X117176190Y-81294875D02*
X117319047Y-81247256D01*
X117319047Y-81247256D02*
X117414285Y-81152017D01*
X117414285Y-81152017D02*
X117461904Y-81056779D01*
X117461904Y-81056779D02*
X117509523Y-80866303D01*
X117509523Y-80866303D02*
X117509523Y-80723446D01*
X117509523Y-80723446D02*
X117461904Y-80532970D01*
X117461904Y-80532970D02*
X117414285Y-80437732D01*
X117414285Y-80437732D02*
X117319047Y-80342494D01*
X117319047Y-80342494D02*
X117176190Y-80294875D01*
X117176190Y-80294875D02*
X117080952Y-80294875D01*
X117080952Y-80294875D02*
X116938095Y-80342494D01*
X116938095Y-80342494D02*
X116890476Y-80390113D01*
X116509523Y-81247256D02*
X116366666Y-81294875D01*
X116366666Y-81294875D02*
X116128571Y-81294875D01*
X116128571Y-81294875D02*
X116033333Y-81247256D01*
X116033333Y-81247256D02*
X115985714Y-81199636D01*
X115985714Y-81199636D02*
X115938095Y-81104398D01*
X115938095Y-81104398D02*
X115938095Y-81009160D01*
X115938095Y-81009160D02*
X115985714Y-80913922D01*
X115985714Y-80913922D02*
X116033333Y-80866303D01*
X116033333Y-80866303D02*
X116128571Y-80818684D01*
X116128571Y-80818684D02*
X116319047Y-80771065D01*
X116319047Y-80771065D02*
X116414285Y-80723446D01*
X116414285Y-80723446D02*
X116461904Y-80675827D01*
X116461904Y-80675827D02*
X116509523Y-80580589D01*
X116509523Y-80580589D02*
X116509523Y-80485351D01*
X116509523Y-80485351D02*
X116461904Y-80390113D01*
X116461904Y-80390113D02*
X116414285Y-80342494D01*
X116414285Y-80342494D02*
X116319047Y-80294875D01*
X116319047Y-80294875D02*
X116080952Y-80294875D01*
X116080952Y-80294875D02*
X115938095Y-80342494D01*
X127438094Y-82000057D02*
X127390475Y-81952438D01*
X127390475Y-81952438D02*
X127295237Y-81904819D01*
X127295237Y-81904819D02*
X127057142Y-81904819D01*
X127057142Y-81904819D02*
X126961904Y-81952438D01*
X126961904Y-81952438D02*
X126914285Y-82000057D01*
X126914285Y-82000057D02*
X126866666Y-82095295D01*
X126866666Y-82095295D02*
X126866666Y-82190533D01*
X126866666Y-82190533D02*
X126914285Y-82333390D01*
X126914285Y-82333390D02*
X127485713Y-82904819D01*
X127485713Y-82904819D02*
X126866666Y-82904819D01*
X126247618Y-81904819D02*
X126152380Y-81904819D01*
X126152380Y-81904819D02*
X126057142Y-81952438D01*
X126057142Y-81952438D02*
X126009523Y-82000057D01*
X126009523Y-82000057D02*
X125961904Y-82095295D01*
X125961904Y-82095295D02*
X125914285Y-82285771D01*
X125914285Y-82285771D02*
X125914285Y-82523866D01*
X125914285Y-82523866D02*
X125961904Y-82714342D01*
X125961904Y-82714342D02*
X126009523Y-82809580D01*
X126009523Y-82809580D02*
X126057142Y-82857200D01*
X126057142Y-82857200D02*
X126152380Y-82904819D01*
X126152380Y-82904819D02*
X126247618Y-82904819D01*
X126247618Y-82904819D02*
X126342856Y-82857200D01*
X126342856Y-82857200D02*
X126390475Y-82809580D01*
X126390475Y-82809580D02*
X126438094Y-82714342D01*
X126438094Y-82714342D02*
X126485713Y-82523866D01*
X126485713Y-82523866D02*
X126485713Y-82285771D01*
X126485713Y-82285771D02*
X126438094Y-82095295D01*
X126438094Y-82095295D02*
X126390475Y-82000057D01*
X126390475Y-82000057D02*
X126342856Y-81952438D01*
X126342856Y-81952438D02*
X126247618Y-81904819D01*
X125533332Y-82000057D02*
X125485713Y-81952438D01*
X125485713Y-81952438D02*
X125390475Y-81904819D01*
X125390475Y-81904819D02*
X125152380Y-81904819D01*
X125152380Y-81904819D02*
X125057142Y-81952438D01*
X125057142Y-81952438D02*
X125009523Y-82000057D01*
X125009523Y-82000057D02*
X124961904Y-82095295D01*
X124961904Y-82095295D02*
X124961904Y-82190533D01*
X124961904Y-82190533D02*
X125009523Y-82333390D01*
X125009523Y-82333390D02*
X125580951Y-82904819D01*
X125580951Y-82904819D02*
X124961904Y-82904819D01*
X124104761Y-82238152D02*
X124104761Y-82904819D01*
X124342856Y-81857200D02*
X124580951Y-82571485D01*
X124580951Y-82571485D02*
X123961904Y-82571485D01*
X123580951Y-82523866D02*
X122819047Y-82523866D01*
X122390475Y-82000057D02*
X122342856Y-81952438D01*
X122342856Y-81952438D02*
X122247618Y-81904819D01*
X122247618Y-81904819D02*
X122009523Y-81904819D01*
X122009523Y-81904819D02*
X121914285Y-81952438D01*
X121914285Y-81952438D02*
X121866666Y-82000057D01*
X121866666Y-82000057D02*
X121819047Y-82095295D01*
X121819047Y-82095295D02*
X121819047Y-82190533D01*
X121819047Y-82190533D02*
X121866666Y-82333390D01*
X121866666Y-82333390D02*
X122438094Y-82904819D01*
X122438094Y-82904819D02*
X121819047Y-82904819D01*
X121199999Y-81904819D02*
X121104761Y-81904819D01*
X121104761Y-81904819D02*
X121009523Y-81952438D01*
X121009523Y-81952438D02*
X120961904Y-82000057D01*
X120961904Y-82000057D02*
X120914285Y-82095295D01*
X120914285Y-82095295D02*
X120866666Y-82285771D01*
X120866666Y-82285771D02*
X120866666Y-82523866D01*
X120866666Y-82523866D02*
X120914285Y-82714342D01*
X120914285Y-82714342D02*
X120961904Y-82809580D01*
X120961904Y-82809580D02*
X121009523Y-82857200D01*
X121009523Y-82857200D02*
X121104761Y-82904819D01*
X121104761Y-82904819D02*
X121199999Y-82904819D01*
X121199999Y-82904819D02*
X121295237Y-82857200D01*
X121295237Y-82857200D02*
X121342856Y-82809580D01*
X121342856Y-82809580D02*
X121390475Y-82714342D01*
X121390475Y-82714342D02*
X121438094Y-82523866D01*
X121438094Y-82523866D02*
X121438094Y-82285771D01*
X121438094Y-82285771D02*
X121390475Y-82095295D01*
X121390475Y-82095295D02*
X121342856Y-82000057D01*
X121342856Y-82000057D02*
X121295237Y-81952438D01*
X121295237Y-81952438D02*
X121199999Y-81904819D01*
X120485713Y-82000057D02*
X120438094Y-81952438D01*
X120438094Y-81952438D02*
X120342856Y-81904819D01*
X120342856Y-81904819D02*
X120104761Y-81904819D01*
X120104761Y-81904819D02*
X120009523Y-81952438D01*
X120009523Y-81952438D02*
X119961904Y-82000057D01*
X119961904Y-82000057D02*
X119914285Y-82095295D01*
X119914285Y-82095295D02*
X119914285Y-82190533D01*
X119914285Y-82190533D02*
X119961904Y-82333390D01*
X119961904Y-82333390D02*
X120533332Y-82904819D01*
X120533332Y-82904819D02*
X119914285Y-82904819D01*
X119009523Y-81904819D02*
X119485713Y-81904819D01*
X119485713Y-81904819D02*
X119533332Y-82381009D01*
X119533332Y-82381009D02*
X119485713Y-82333390D01*
X119485713Y-82333390D02*
X119390475Y-82285771D01*
X119390475Y-82285771D02*
X119152380Y-82285771D01*
X119152380Y-82285771D02*
X119057142Y-82333390D01*
X119057142Y-82333390D02*
X119009523Y-82381009D01*
X119009523Y-82381009D02*
X118961904Y-82476247D01*
X118961904Y-82476247D02*
X118961904Y-82714342D01*
X118961904Y-82714342D02*
X119009523Y-82809580D01*
X119009523Y-82809580D02*
X119057142Y-82857200D01*
X119057142Y-82857200D02*
X119152380Y-82904819D01*
X119152380Y-82904819D02*
X119390475Y-82904819D01*
X119390475Y-82904819D02*
X119485713Y-82857200D01*
X119485713Y-82857200D02*
X119533332Y-82809580D01*
X125033333Y-83562382D02*
X125128571Y-83514763D01*
X125128571Y-83514763D02*
X125271428Y-83514763D01*
X125271428Y-83514763D02*
X125414285Y-83562382D01*
X125414285Y-83562382D02*
X125509523Y-83657620D01*
X125509523Y-83657620D02*
X125557142Y-83752858D01*
X125557142Y-83752858D02*
X125604761Y-83943334D01*
X125604761Y-83943334D02*
X125604761Y-84086191D01*
X125604761Y-84086191D02*
X125557142Y-84276667D01*
X125557142Y-84276667D02*
X125509523Y-84371905D01*
X125509523Y-84371905D02*
X125414285Y-84467144D01*
X125414285Y-84467144D02*
X125271428Y-84514763D01*
X125271428Y-84514763D02*
X125176190Y-84514763D01*
X125176190Y-84514763D02*
X125033333Y-84467144D01*
X125033333Y-84467144D02*
X124985714Y-84419524D01*
X124985714Y-84419524D02*
X124985714Y-84086191D01*
X124985714Y-84086191D02*
X125176190Y-84086191D01*
X124080952Y-84514763D02*
X124557142Y-84514763D01*
X124557142Y-84514763D02*
X124557142Y-83514763D01*
X123747618Y-84514763D02*
X123747618Y-83514763D01*
X123271428Y-84514763D02*
X123271428Y-83514763D01*
X123271428Y-83514763D02*
X123033333Y-83514763D01*
X123033333Y-83514763D02*
X122890476Y-83562382D01*
X122890476Y-83562382D02*
X122795238Y-83657620D01*
X122795238Y-83657620D02*
X122747619Y-83752858D01*
X122747619Y-83752858D02*
X122700000Y-83943334D01*
X122700000Y-83943334D02*
X122700000Y-84086191D01*
X122700000Y-84086191D02*
X122747619Y-84276667D01*
X122747619Y-84276667D02*
X122795238Y-84371905D01*
X122795238Y-84371905D02*
X122890476Y-84467144D01*
X122890476Y-84467144D02*
X123033333Y-84514763D01*
X123033333Y-84514763D02*
X123271428Y-84514763D01*
X122271428Y-83990953D02*
X121938095Y-83990953D01*
X121795238Y-84514763D02*
X122271428Y-84514763D01*
X122271428Y-84514763D02*
X122271428Y-83514763D01*
X122271428Y-83514763D02*
X121795238Y-83514763D01*
X120795238Y-84514763D02*
X121128571Y-84038572D01*
X121366666Y-84514763D02*
X121366666Y-83514763D01*
X121366666Y-83514763D02*
X120985714Y-83514763D01*
X120985714Y-83514763D02*
X120890476Y-83562382D01*
X120890476Y-83562382D02*
X120842857Y-83610001D01*
X120842857Y-83610001D02*
X120795238Y-83705239D01*
X120795238Y-83705239D02*
X120795238Y-83848096D01*
X120795238Y-83848096D02*
X120842857Y-83943334D01*
X120842857Y-83943334D02*
X120890476Y-83990953D01*
X120890476Y-83990953D02*
X120985714Y-84038572D01*
X120985714Y-84038572D02*
X121366666Y-84038572D01*
M02*
