%TF.GenerationSoftware,KiCad,Pcbnew,8.0.6*%
%TF.CreationDate,2024-12-27T21:12:54-05:00*%
%TF.ProjectId,Glider,476c6964-6572-42e6-9b69-6361645f7063,rev?*%
%TF.SameCoordinates,Original*%
%TF.FileFunction,Copper,L1,Top*%
%TF.FilePolarity,Positive*%
%FSLAX46Y46*%
G04 Gerber Fmt 4.6, Leading zero omitted, Abs format (unit mm)*
G04 Created by KiCad (PCBNEW 8.0.6) date 2024-12-27 21:12:54*
%MOMM*%
%LPD*%
G01*
G04 APERTURE LIST*
G04 Aperture macros list*
%AMRoundRect*
0 Rectangle with rounded corners*
0 $1 Rounding radius*
0 $2 $3 $4 $5 $6 $7 $8 $9 X,Y pos of 4 corners*
0 Add a 4 corners polygon primitive as box body*
4,1,4,$2,$3,$4,$5,$6,$7,$8,$9,$2,$3,0*
0 Add four circle primitives for the rounded corners*
1,1,$1+$1,$2,$3*
1,1,$1+$1,$4,$5*
1,1,$1+$1,$6,$7*
1,1,$1+$1,$8,$9*
0 Add four rect primitives between the rounded corners*
20,1,$1+$1,$2,$3,$4,$5,0*
20,1,$1+$1,$4,$5,$6,$7,0*
20,1,$1+$1,$6,$7,$8,$9,0*
20,1,$1+$1,$8,$9,$2,$3,0*%
G04 Aperture macros list end*
%TA.AperFunction,ComponentPad*%
%ADD10R,1.700000X1.700000*%
%TD*%
%TA.AperFunction,ComponentPad*%
%ADD11O,1.700000X1.700000*%
%TD*%
%TA.AperFunction,ComponentPad*%
%ADD12C,1.600000*%
%TD*%
%TA.AperFunction,ComponentPad*%
%ADD13O,1.600000X1.600000*%
%TD*%
%TA.AperFunction,ComponentPad*%
%ADD14C,5.000000*%
%TD*%
%TA.AperFunction,ComponentPad*%
%ADD15R,2.000000X1.905000*%
%TD*%
%TA.AperFunction,ComponentPad*%
%ADD16O,2.000000X1.905000*%
%TD*%
%TA.AperFunction,ComponentPad*%
%ADD17R,1.300000X1.300000*%
%TD*%
%TA.AperFunction,ComponentPad*%
%ADD18C,1.300000*%
%TD*%
%TA.AperFunction,SMDPad,CuDef*%
%ADD19RoundRect,0.250000X-0.375000X-0.625000X0.375000X-0.625000X0.375000X0.625000X-0.375000X0.625000X0*%
%TD*%
%TA.AperFunction,ViaPad*%
%ADD20C,0.800000*%
%TD*%
%TA.AperFunction,Conductor*%
%ADD21C,0.250000*%
%TD*%
G04 APERTURE END LIST*
D10*
%TO.P,J2,1,Pin_1*%
%TO.N,/5V*%
X134660000Y-51800000D03*
D11*
%TO.P,J2,2,Pin_2*%
%TO.N,/GPIO11*%
X134660000Y-54340000D03*
%TO.P,J2,3,Pin_3*%
%TO.N,/GPIO10_TX1*%
X134660000Y-56880000D03*
%TO.P,J2,4,Pin_4*%
%TO.N,/GPIO9_RX1*%
X134660000Y-59420000D03*
%TO.P,J2,5,Pin_5*%
%TO.N,/GPIO13*%
X134660000Y-61960000D03*
%TO.P,J2,6,Pin_6*%
%TO.N,GND*%
X134660000Y-64500000D03*
%TO.P,J2,7,Pin_7*%
%TO.N,/GPIO12*%
X134660000Y-67040000D03*
%TO.P,J2,8,Pin_8*%
%TO.N,/GPIO14*%
X134660000Y-69580000D03*
%TO.P,J2,9,Pin_9*%
%TO.N,/GPIO27*%
X134660000Y-72120000D03*
%TO.P,J2,10,Pin_10*%
%TO.N,/GPIO26*%
X134660000Y-74660000D03*
%TO.P,J2,11,Pin_11*%
%TO.N,/GPIO25*%
X134660000Y-77200000D03*
%TO.P,J2,12,Pin_12*%
%TO.N,/GPIO33*%
X134660000Y-79740000D03*
%TO.P,J2,13,Pin_13*%
%TO.N,/GPIO32*%
X134660000Y-82280000D03*
%TO.P,J2,14,Pin_14*%
%TO.N,/GPIO35*%
X134660000Y-84820000D03*
%TO.P,J2,15,Pin_15*%
%TO.N,/GPIO34*%
X134660000Y-87360000D03*
%TO.P,J2,16,Pin_16*%
%TO.N,/GPIO39*%
X134660000Y-89900000D03*
%TO.P,J2,17,Pin_17*%
%TO.N,/GPIO36*%
X134660000Y-92440000D03*
%TO.P,J2,18,Pin_18*%
%TO.N,/RST_EN*%
X134660000Y-94980000D03*
%TO.P,J2,19,Pin_19*%
%TO.N,/3_3V*%
X134660000Y-97520000D03*
%TD*%
D12*
%TO.P,C9,1*%
%TO.N,/5V*%
X141200000Y-72900000D03*
%TO.P,C9,2*%
%TO.N,GND*%
X141200000Y-67900000D03*
%TD*%
%TO.P,R2,1*%
%TO.N,/GPIO15*%
X139710000Y-89350000D03*
D13*
%TO.P,R2,2*%
%TO.N,Net-(Q2-B)*%
X142250000Y-89350000D03*
%TD*%
D10*
%TO.P,J6,1,Pin_1*%
%TO.N,/Vin*%
X123230000Y-101650000D03*
D11*
%TO.P,J6,2,Pin_2*%
%TO.N,GND*%
X125770000Y-101650000D03*
%TD*%
D10*
%TO.P,J8,1,Pin_1*%
%TO.N,GND*%
X144550000Y-68675000D03*
D11*
%TO.P,J8,2,Pin_2*%
%TO.N,/5V*%
X144550000Y-71215000D03*
%TO.P,J8,3,Pin_3*%
%TO.N,/GPIO26*%
X144550000Y-73755000D03*
%TD*%
D14*
%TO.P,H3,1*%
%TO.N,N/C*%
X96550000Y-101450000D03*
%TD*%
%TO.P,H1,1*%
%TO.N,N/C*%
X96800000Y-47600000D03*
%TD*%
%TO.P,H4,1*%
%TO.N,N/C*%
X153100000Y-101950000D03*
%TD*%
D12*
%TO.P,C1,1*%
%TO.N,/5V*%
X138000000Y-57750000D03*
%TO.P,C1,2*%
%TO.N,GND*%
X138000000Y-62750000D03*
%TD*%
D10*
%TO.P,J7,1,Pin_1*%
%TO.N,GND*%
X100950000Y-68675000D03*
D11*
%TO.P,J7,2,Pin_2*%
%TO.N,/5V*%
X100950000Y-71215000D03*
%TO.P,J7,3,Pin_3*%
%TO.N,/GPIO25*%
X100950000Y-73755000D03*
%TD*%
D10*
%TO.P,J4,1,Pin_1*%
%TO.N,/3_3V*%
X100600000Y-51470000D03*
D11*
%TO.P,J4,2,Pin_2*%
%TO.N,/GPIO16_RX2*%
X100600000Y-54010000D03*
%TO.P,J4,3,Pin_3*%
%TO.N,/GPIO17_TX2*%
X100600000Y-56550000D03*
%TO.P,J4,4,Pin_4*%
%TO.N,GND*%
X100600000Y-59090000D03*
%TO.P,J4,5,Pin_5*%
%TO.N,/PPS*%
X100600000Y-61630000D03*
%TD*%
D10*
%TO.P,J3,1,Pin_1*%
%TO.N,/3_3V*%
X149800000Y-79775000D03*
D11*
%TO.P,J3,2,Pin_2*%
%TO.N,GND*%
X149800000Y-82315000D03*
%TO.P,J3,3,Pin_3*%
%TO.N,/GPIO22_I2C_SCL*%
X149800000Y-84855000D03*
%TO.P,J3,4,Pin_4*%
%TO.N,/GPIO21_I2C_SDA*%
X149800000Y-87395000D03*
%TO.P,J3,5,Pin_5*%
%TO.N,/XDA_MPU*%
X149800000Y-89935000D03*
%TO.P,J3,6,Pin_6*%
%TO.N,/XCL_MPU*%
X149800000Y-92475000D03*
%TO.P,J3,7,Pin_7*%
%TO.N,/ADD_MPU*%
X149800000Y-95015000D03*
%TO.P,J3,8,Pin_8*%
%TO.N,/INT_MPU*%
X149800000Y-97555000D03*
%TD*%
D12*
%TO.P,R3,1*%
%TO.N,Net-(Q2-E)*%
X146050000Y-93840000D03*
D13*
%TO.P,R3,2*%
%TO.N,GND*%
X146050000Y-91300000D03*
%TD*%
D12*
%TO.P,C4,1*%
%TO.N,/GPIO26*%
X147900000Y-74450000D03*
%TO.P,C4,2*%
%TO.N,GND*%
X147900000Y-69450000D03*
%TD*%
%TO.P,R1,1*%
%TO.N,/5V*%
X140950000Y-79690000D03*
D13*
%TO.P,R1,2*%
%TO.N,Net-(D1-A)*%
X140950000Y-77150000D03*
%TD*%
D12*
%TO.P,C5,1*%
%TO.N,/3_3V*%
X104200000Y-98150000D03*
%TO.P,C5,2*%
%TO.N,GND*%
X104200000Y-93150000D03*
%TD*%
%TO.P,C6,1*%
%TO.N,/3_3V*%
X146400000Y-79000000D03*
%TO.P,C6,2*%
%TO.N,GND*%
X146400000Y-84000000D03*
%TD*%
D15*
%TO.P,U1,1,IN*%
%TO.N,/Vin*%
X143250000Y-53000000D03*
D16*
%TO.P,U1,2,GND*%
%TO.N,GND*%
X143250000Y-55540000D03*
%TO.P,U1,3,OUT*%
%TO.N,/5V*%
X143250000Y-58080000D03*
%TD*%
D10*
%TO.P,J1,1,Pin_1*%
%TO.N,GND*%
X111800000Y-97500000D03*
D11*
%TO.P,J1,2,Pin_2*%
%TO.N,/GPIO23*%
X111800000Y-94960000D03*
%TO.P,J1,3,Pin_3*%
%TO.N,/GPIO22_I2C_SCL*%
X111800000Y-92420000D03*
%TO.P,J1,4,Pin_4*%
%TO.N,/GPIO1_TX0*%
X111800000Y-89880000D03*
%TO.P,J1,5,Pin_5*%
%TO.N,/GPIO3_RX0*%
X111800000Y-87340000D03*
%TO.P,J1,6,Pin_6*%
%TO.N,/GPIO21_I2C_SDA*%
X111800000Y-84800000D03*
%TO.P,J1,7,Pin_7*%
%TO.N,GND*%
X111800000Y-82260000D03*
%TO.P,J1,8,Pin_8*%
%TO.N,/GPIO19_MISO*%
X111800000Y-79720000D03*
%TO.P,J1,9,Pin_9*%
%TO.N,/GPIO18_SCK*%
X111800000Y-77180000D03*
%TO.P,J1,10,Pin_10*%
%TO.N,/GPIO5_SS*%
X111800000Y-74640000D03*
%TO.P,J1,11,Pin_11*%
%TO.N,/GPIO17_TX2*%
X111800000Y-72100000D03*
%TO.P,J1,12,Pin_12*%
%TO.N,/GPIO16_RX2*%
X111800000Y-69560000D03*
%TO.P,J1,13,Pin_13*%
%TO.N,/GPIO4*%
X111800000Y-67020000D03*
%TO.P,J1,14,Pin_14*%
%TO.N,/GPIO0*%
X111800000Y-64480000D03*
%TO.P,J1,15,Pin_15*%
%TO.N,/GPIO2*%
X111800000Y-61940000D03*
%TO.P,J1,16,Pin_16*%
%TO.N,/GPIO15*%
X111800000Y-59400000D03*
%TO.P,J1,17,Pin_17*%
%TO.N,/GPIO8_Flash_D1*%
X111800000Y-56860000D03*
%TO.P,J1,18,Pin_18*%
%TO.N,/GPIO7_Flash_D0*%
X111800000Y-54320000D03*
%TO.P,J1,19,Pin_19*%
%TO.N,/GPIO6_Flash_CLK*%
X111800000Y-51780000D03*
%TD*%
D12*
%TO.P,C8,1*%
%TO.N,/5V*%
X104250000Y-72900000D03*
%TO.P,C8,2*%
%TO.N,GND*%
X104250000Y-67900000D03*
%TD*%
D17*
%TO.P,Q2,1,C*%
%TO.N,Net-(D1-K)*%
X139610000Y-96150000D03*
D18*
%TO.P,Q2,2,B*%
%TO.N,Net-(Q2-B)*%
X140880000Y-94880000D03*
%TO.P,Q2,3,E*%
%TO.N,Net-(Q2-E)*%
X142150000Y-96150000D03*
%TD*%
D12*
%TO.P,C7,1*%
%TO.N,/3_3V*%
X103950000Y-50700000D03*
%TO.P,C7,2*%
%TO.N,GND*%
X103950000Y-55700000D03*
%TD*%
D10*
%TO.P,J5,1,Pin_1*%
%TO.N,/DRDY_mag*%
X100850000Y-87325000D03*
D11*
%TO.P,J5,2,Pin_2*%
%TO.N,/GPIO21_I2C_SDA*%
X100850000Y-89865000D03*
%TO.P,J5,3,Pin_3*%
%TO.N,/GPIO22_I2C_SCL*%
X100850000Y-92405000D03*
%TO.P,J5,4,Pin_4*%
%TO.N,GND*%
X100850000Y-94945000D03*
%TO.P,J5,5,Pin_5*%
%TO.N,/3_3V*%
X100850000Y-97485000D03*
%TD*%
D12*
%TO.P,C2,1*%
%TO.N,/Vin*%
X138050000Y-50600000D03*
%TO.P,C2,2*%
%TO.N,GND*%
X138050000Y-55600000D03*
%TD*%
%TO.P,C3,1*%
%TO.N,/GPIO25*%
X97600000Y-74450000D03*
%TO.P,C3,2*%
%TO.N,GND*%
X97600000Y-69450000D03*
%TD*%
D14*
%TO.P,H2,1*%
%TO.N,N/C*%
X153400000Y-47900000D03*
%TD*%
D19*
%TO.P,D1,1,K*%
%TO.N,Net-(D1-K)*%
X139550000Y-83850000D03*
%TO.P,D1,2,A*%
%TO.N,Net-(D1-A)*%
X142350000Y-83850000D03*
%TD*%
D20*
%TO.N,/5V*%
X125650000Y-74700000D03*
%TO.N,/GPIO25*%
X125050000Y-76050000D03*
%TO.N,/3_3V*%
X114850000Y-100150000D03*
X138750000Y-86450000D03*
X120100000Y-98650000D03*
%TD*%
D21*
%TO.N,GND*%
X103950000Y-55740000D02*
X103950000Y-55700000D01*
X147175000Y-94305991D02*
X147175000Y-92425000D01*
X139830991Y-101650000D02*
X147175000Y-94305991D01*
X143250000Y-55540000D02*
X138110000Y-55540000D01*
X117050000Y-103850000D02*
X125900000Y-103850000D01*
X97600000Y-62090000D02*
X97600000Y-69450000D01*
X125900000Y-103700000D02*
X125770000Y-103570000D01*
X143775000Y-67900000D02*
X144550000Y-68675000D01*
X144550000Y-68675000D02*
X147125000Y-68675000D01*
X100600000Y-59090000D02*
X103950000Y-55740000D01*
X100950000Y-68675000D02*
X100875000Y-68675000D01*
X104250000Y-67900000D02*
X101725000Y-67900000D01*
X153450000Y-82550000D02*
X153215000Y-82315000D01*
X125770000Y-101650000D02*
X139830991Y-101650000D01*
X104200000Y-89860000D02*
X111800000Y-82260000D01*
X111800000Y-97500000D02*
X111800000Y-98600000D01*
X111800000Y-82260000D02*
X106500000Y-76960000D01*
X125900000Y-103850000D02*
X125900000Y-103700000D01*
X147175000Y-92425000D02*
X146050000Y-91300000D01*
X100100000Y-69450000D02*
X97600000Y-69450000D01*
X138000000Y-64700000D02*
X141200000Y-67900000D01*
X141200000Y-67900000D02*
X143775000Y-67900000D01*
X106500000Y-67350000D02*
X105950000Y-67900000D01*
X104250000Y-62740000D02*
X100600000Y-59090000D01*
X100875000Y-68675000D02*
X100100000Y-69450000D01*
X125770000Y-103570000D02*
X125770000Y-101650000D01*
X147900000Y-69450000D02*
X150550000Y-69450000D01*
X101725000Y-67900000D02*
X100950000Y-68675000D01*
X146400000Y-84000000D02*
X148115000Y-84000000D01*
X146400000Y-90950000D02*
X146050000Y-91300000D01*
X108550000Y-97500000D02*
X104200000Y-93150000D01*
X146400000Y-84000000D02*
X146400000Y-90950000D01*
X106500000Y-76960000D02*
X106500000Y-67350000D01*
X147125000Y-68675000D02*
X147900000Y-69450000D01*
X102645000Y-93150000D02*
X100850000Y-94945000D01*
X111800000Y-97500000D02*
X108550000Y-97500000D01*
X111800000Y-98600000D02*
X117050000Y-103850000D01*
X105950000Y-67900000D02*
X104250000Y-67900000D01*
X153450000Y-72350000D02*
X153450000Y-82550000D01*
X104200000Y-93150000D02*
X102645000Y-93150000D01*
X100600000Y-59090000D02*
X97600000Y-62090000D01*
X138000000Y-60790000D02*
X143250000Y-55540000D01*
X138000000Y-62750000D02*
X138000000Y-64700000D01*
X138000000Y-62750000D02*
X138000000Y-60790000D01*
X104250000Y-67900000D02*
X104250000Y-62740000D01*
X148115000Y-84000000D02*
X149800000Y-82315000D01*
X138110000Y-55540000D02*
X138050000Y-55600000D01*
X153215000Y-82315000D02*
X149800000Y-82315000D01*
X150550000Y-69450000D02*
X153450000Y-72350000D01*
X104200000Y-93150000D02*
X104200000Y-89860000D01*
%TO.N,/5V*%
X100950000Y-71215000D02*
X102565000Y-71215000D01*
X134660000Y-51800000D02*
X135835000Y-52975000D01*
X125650000Y-74700000D02*
X126865000Y-73485000D01*
X139825000Y-78565000D02*
X140950000Y-79690000D01*
X135835000Y-52975000D02*
X135835000Y-55585000D01*
X126865000Y-73485000D02*
X140615000Y-73485000D01*
X141200000Y-72900000D02*
X139825000Y-74275000D01*
X140615000Y-73485000D02*
X141200000Y-72900000D01*
X135835000Y-55585000D02*
X138000000Y-57750000D01*
X102565000Y-71215000D02*
X104250000Y-72900000D01*
X139825000Y-74275000D02*
X139825000Y-78565000D01*
%TO.N,/Vin*%
X135850000Y-48400000D02*
X135850000Y-48300000D01*
X123230000Y-91780000D02*
X123230000Y-101650000D01*
X138050000Y-50600000D02*
X140850000Y-50600000D01*
X140850000Y-50600000D02*
X143250000Y-53000000D01*
X121600000Y-56900000D02*
X121600000Y-90150000D01*
X138050000Y-50600000D02*
X135850000Y-48400000D01*
X121600000Y-90150000D02*
X123230000Y-91780000D01*
X130000000Y-48500000D02*
X121600000Y-56900000D01*
X135850000Y-48300000D02*
X130000000Y-48300000D01*
X130000000Y-48300000D02*
X130000000Y-48500000D01*
%TO.N,/GPIO25*%
X126800000Y-77200000D02*
X134660000Y-77200000D01*
X100255000Y-74450000D02*
X100950000Y-73755000D01*
X125650000Y-76050000D02*
X126800000Y-77200000D01*
X97600000Y-74450000D02*
X100255000Y-74450000D01*
X125050000Y-76050000D02*
X125650000Y-76050000D01*
%TO.N,/3_3V*%
X114850000Y-100150000D02*
X116350000Y-98650000D01*
X100600000Y-51470000D02*
X103180000Y-51470000D01*
X103180000Y-51470000D02*
X103950000Y-50700000D01*
X143850000Y-86500000D02*
X143850000Y-81550000D01*
X95100000Y-96750000D02*
X95835000Y-97485000D01*
X94850000Y-57220000D02*
X94850000Y-96750000D01*
X143850000Y-81550000D02*
X146400000Y-79000000D01*
X100600000Y-51470000D02*
X94850000Y-57220000D01*
X94850000Y-96750000D02*
X95100000Y-96750000D01*
X116350000Y-98650000D02*
X120100000Y-98650000D01*
X95835000Y-97485000D02*
X100850000Y-97485000D01*
X138750000Y-86450000D02*
X143800000Y-86450000D01*
X143800000Y-86450000D02*
X143850000Y-86500000D01*
%TO.N,/GPIO16_RX2*%
X103850991Y-54010000D02*
X110625000Y-60784009D01*
X100600000Y-54010000D02*
X103850991Y-54010000D01*
X110625000Y-68385000D02*
X111800000Y-69560000D01*
X110625000Y-60784009D02*
X110625000Y-68385000D01*
%TO.N,Net-(D1-A)*%
X142350000Y-78550000D02*
X142350000Y-83850000D01*
X140950000Y-77150000D02*
X142350000Y-78550000D01*
%TO.N,Net-(Q2-B)*%
X140880000Y-94880000D02*
X140880000Y-90720000D01*
X140880000Y-90720000D02*
X142250000Y-89350000D01*
%TO.N,Net-(Q2-E)*%
X142150000Y-96150000D02*
X143740000Y-96150000D01*
X143740000Y-96150000D02*
X146050000Y-93840000D01*
%TO.N,Net-(D1-K)*%
X139610000Y-96150000D02*
X137300000Y-93840000D01*
X138100000Y-83850000D02*
X139550000Y-83850000D01*
X137400000Y-84550000D02*
X138100000Y-83850000D01*
X137300000Y-84550000D02*
X137400000Y-84550000D01*
X137300000Y-93840000D02*
X137300000Y-84550000D01*
%TD*%
M02*
