M48
; DRILL file {KiCad 8.0.6} date 2024-12-27T23:09:35-0500
; FORMAT={-:-/ absolute / inch / decimal}
; #@! TF.CreationDate,2024-12-27T23:09:35-05:00
; #@! TF.GenerationSoftware,Kicad,Pcbnew,8.0.6
; #@! TF.FileFunction,Plated,1,2,PTH
FMAT,2
INCH
; #@! TA.AperFunction,Plated,PTH,ViaDrill
T1C0.0157
; #@! TA.AperFunction,Plated,PTH,ComponentDrill
T2C0.0295
; #@! TA.AperFunction,Plated,PTH,ComponentDrill
T3C0.0315
; #@! TA.AperFunction,Plated,PTH,ComponentDrill
T4C0.0394
; #@! TA.AperFunction,Plated,PTH,ComponentDrill
T5C0.0433
; #@! TA.AperFunction,Plated,PTH,ComponentDrill
T6C0.0984
%
G90
G05
T1
X4.5217Y-3.9429
X4.7283Y-3.8839
X4.9232Y-2.9941
X4.9469Y-2.9409
X5.4626Y-3.4035
T2
X5.4965Y-3.7854
X5.5465Y-3.7354
X5.5965Y-3.7854
T3
X3.8425Y-2.7343
X3.8425Y-2.9311
X4.0925Y-1.9961
X4.0925Y-2.1929
X4.1024Y-3.6673
X4.1024Y-3.8642
X4.1043Y-2.6732
X4.1043Y-2.8701
X5.4331Y-2.2736
X5.4331Y-2.4705
X5.435Y-1.9921
X5.435Y-2.189
X5.5004Y-3.5177
X5.5492Y-3.0374
X5.5492Y-3.1374
X5.5591Y-2.6732
X5.5591Y-2.8701
X5.6004Y-3.5177
X5.75Y-3.5945
X5.75Y-3.6945
X5.7638Y-3.1102
X5.7638Y-3.3071
X5.8228Y-2.7343
X5.8228Y-2.9311
T4
X3.9606Y-2.0264
X3.9606Y-2.1264
X3.9606Y-2.2264
X3.9606Y-2.3264
X3.9606Y-2.4264
X3.9705Y-3.438
X3.9705Y-3.538
X3.9705Y-3.638
X3.9705Y-3.738
X3.9705Y-3.838
X3.9744Y-2.7037
X3.9744Y-2.8037
X3.9744Y-2.9037
X4.4016Y-2.0386
X4.4016Y-2.1386
X4.4016Y-2.2386
X4.4016Y-2.3386
X4.4016Y-2.4386
X4.4016Y-2.5386
X4.4016Y-2.6386
X4.4016Y-2.7386
X4.4016Y-2.8386
X4.4016Y-2.9386
X4.4016Y-3.0386
X4.4016Y-3.1386
X4.4016Y-3.2386
X4.4016Y-3.3386
X4.4016Y-3.4386
X4.4016Y-3.5386
X4.4016Y-3.6386
X4.4016Y-3.7386
X4.4016Y-3.8386
X4.8516Y-4.002
X4.9516Y-4.002
X5.3016Y-2.0394
X5.3016Y-2.1394
X5.3016Y-2.2394
X5.3016Y-2.3394
X5.3016Y-2.4394
X5.3016Y-2.5394
X5.3016Y-2.6394
X5.3016Y-2.7394
X5.3016Y-2.8394
X5.3016Y-2.9394
X5.3016Y-3.0394
X5.3016Y-3.1394
X5.3016Y-3.2394
X5.3016Y-3.3394
X5.3016Y-3.4394
X5.3016Y-3.5394
X5.3016Y-3.6394
X5.3016Y-3.7394
X5.3016Y-3.8394
X5.6909Y-2.7037
X5.6909Y-2.8037
X5.6909Y-2.9037
X5.8976Y-3.1407
X5.8976Y-3.2407
X5.8976Y-3.3407
X5.8976Y-3.4407
X5.8976Y-3.5407
X5.8976Y-3.6407
X5.8976Y-3.7407
X5.8976Y-3.8407
T5
X5.6398Y-2.0866
X5.6398Y-2.1866
X5.6398Y-2.2866
T6
X3.8012Y-3.9941
X3.811Y-1.874
X6.0276Y-4.0138
X6.0394Y-1.8858
M30
