%TF.GenerationSoftware,KiCad,Pcbnew,8.0.6*%
%TF.CreationDate,2024-12-27T21:12:54-05:00*%
%TF.ProjectId,Glider,476c6964-6572-42e6-9b69-6361645f7063,rev?*%
%TF.SameCoordinates,Original*%
%TF.FileFunction,Soldermask,Bot*%
%TF.FilePolarity,Negative*%
%FSLAX46Y46*%
G04 Gerber Fmt 4.6, Leading zero omitted, Abs format (unit mm)*
G04 Created by KiCad (PCBNEW 8.0.6) date 2024-12-27 21:12:54*
%MOMM*%
%LPD*%
G01*
G04 APERTURE LIST*
%ADD10R,1.700000X1.700000*%
%ADD11O,1.700000X1.700000*%
%ADD12C,1.600000*%
%ADD13O,1.600000X1.600000*%
%ADD14C,5.000000*%
%ADD15R,2.000000X1.905000*%
%ADD16O,2.000000X1.905000*%
%ADD17R,1.300000X1.300000*%
%ADD18C,1.300000*%
G04 APERTURE END LIST*
D10*
%TO.C,J2*%
X134660000Y-51800000D03*
D11*
X134660000Y-54340000D03*
X134660000Y-56880000D03*
X134660000Y-59420000D03*
X134660000Y-61960000D03*
X134660000Y-64500000D03*
X134660000Y-67040000D03*
X134660000Y-69580000D03*
X134660000Y-72120000D03*
X134660000Y-74660000D03*
X134660000Y-77200000D03*
X134660000Y-79740000D03*
X134660000Y-82280000D03*
X134660000Y-84820000D03*
X134660000Y-87360000D03*
X134660000Y-89900000D03*
X134660000Y-92440000D03*
X134660000Y-94980000D03*
X134660000Y-97520000D03*
%TD*%
D12*
%TO.C,C9*%
X141200000Y-72900000D03*
X141200000Y-67900000D03*
%TD*%
%TO.C,R2*%
X139710000Y-89350000D03*
D13*
X142250000Y-89350000D03*
%TD*%
D10*
%TO.C,J6*%
X123230000Y-101650000D03*
D11*
X125770000Y-101650000D03*
%TD*%
D10*
%TO.C,J8*%
X144550000Y-68675000D03*
D11*
X144550000Y-71215000D03*
X144550000Y-73755000D03*
%TD*%
D14*
%TO.C,H3*%
X96550000Y-101450000D03*
%TD*%
%TO.C,H1*%
X96800000Y-47600000D03*
%TD*%
%TO.C,H4*%
X153100000Y-101950000D03*
%TD*%
D12*
%TO.C,C1*%
X138000000Y-57750000D03*
X138000000Y-62750000D03*
%TD*%
D10*
%TO.C,J7*%
X100950000Y-68675000D03*
D11*
X100950000Y-71215000D03*
X100950000Y-73755000D03*
%TD*%
D10*
%TO.C,J4*%
X100600000Y-51470000D03*
D11*
X100600000Y-54010000D03*
X100600000Y-56550000D03*
X100600000Y-59090000D03*
X100600000Y-61630000D03*
%TD*%
D10*
%TO.C,J3*%
X149800000Y-79775000D03*
D11*
X149800000Y-82315000D03*
X149800000Y-84855000D03*
X149800000Y-87395000D03*
X149800000Y-89935000D03*
X149800000Y-92475000D03*
X149800000Y-95015000D03*
X149800000Y-97555000D03*
%TD*%
D12*
%TO.C,R3*%
X146050000Y-93840000D03*
D13*
X146050000Y-91300000D03*
%TD*%
D12*
%TO.C,C4*%
X147900000Y-74450000D03*
X147900000Y-69450000D03*
%TD*%
%TO.C,R1*%
X140950000Y-79690000D03*
D13*
X140950000Y-77150000D03*
%TD*%
D12*
%TO.C,C5*%
X104200000Y-98150000D03*
X104200000Y-93150000D03*
%TD*%
%TO.C,C6*%
X146400000Y-79000000D03*
X146400000Y-84000000D03*
%TD*%
D15*
%TO.C,U1*%
X143250000Y-53000000D03*
D16*
X143250000Y-55540000D03*
X143250000Y-58080000D03*
%TD*%
D10*
%TO.C,J1*%
X111800000Y-97500000D03*
D11*
X111800000Y-94960000D03*
X111800000Y-92420000D03*
X111800000Y-89880000D03*
X111800000Y-87340000D03*
X111800000Y-84800000D03*
X111800000Y-82260000D03*
X111800000Y-79720000D03*
X111800000Y-77180000D03*
X111800000Y-74640000D03*
X111800000Y-72100000D03*
X111800000Y-69560000D03*
X111800000Y-67020000D03*
X111800000Y-64480000D03*
X111800000Y-61940000D03*
X111800000Y-59400000D03*
X111800000Y-56860000D03*
X111800000Y-54320000D03*
X111800000Y-51780000D03*
%TD*%
D12*
%TO.C,C8*%
X104250000Y-72900000D03*
X104250000Y-67900000D03*
%TD*%
D17*
%TO.C,Q2*%
X139610000Y-96150000D03*
D18*
X140880000Y-94880000D03*
X142150000Y-96150000D03*
%TD*%
D12*
%TO.C,C7*%
X103950000Y-50700000D03*
X103950000Y-55700000D03*
%TD*%
D10*
%TO.C,J5*%
X100850000Y-87325000D03*
D11*
X100850000Y-89865000D03*
X100850000Y-92405000D03*
X100850000Y-94945000D03*
X100850000Y-97485000D03*
%TD*%
D12*
%TO.C,C2*%
X138050000Y-50600000D03*
X138050000Y-55600000D03*
%TD*%
%TO.C,C3*%
X97600000Y-74450000D03*
X97600000Y-69450000D03*
%TD*%
D14*
%TO.C,H2*%
X153400000Y-47900000D03*
%TD*%
M02*
